# xmcd CD database file
#
# Track frame offsets:
#	150
#	19800
#	37653
#	55071
#	66467
#	70970
#	79830
#	96360
#	108226
#	116668
#	130348
#	137815
#	165466
#	203416
#	215007
#
# Disc length: 3064 seconds
#
# Revision: 0
# Processed by: cddbd v1.5.1PL2 Copyright (c) Steve Scherf et al.
# Submitted via: CDex 1.51
#
DISCID=d30bf60f
DTITLE=Petra Magoni Ferruccio Spinetti - Musica nuda
DYEAR=2005
DGENRE=Jazz
TTITLE0=Prendila cosi'
TTITLE1=Run With me
TTITLE2=I will survive
TTITLE3=Guarda che luna
TTITLE4=Maledetto sia l'aspetto
TTITLE5=Blackbird
TTITLE6=Sacrifice
TTITLE7=How intro/How insensitive
TTITLE8=Voglia di vita uscir
TTITLE9=Raindrops keep falling on my head
TTITLE10=Nessuno
TTITLE11=Nature boy
TTITLE12=Imagine
TTITLE13=Eleanor Rigby
TTITLE14=Roxanne
EXTD=YEAR: 2005
EXTT0=
EXTT1=
EXTT2=
EXTT3=
EXTT4=
EXTT5=
EXTT6=
EXTT7=
EXTT8=
EXTT9=
EXTT10=
EXTT11=
EXTT12=
EXTT13=
EXTT14=
PLAYORDER=
